<mxfile host="www.draw.io" modified="2019-10-30T04:44:56.597Z" agent="Mozilla/5.0 (Windows NT 10.0; Win64; x64) AppleWebKit/537.36 (KHTML, like Gecko) Chrome/78.0.3904.70 Safari/537.36" etag="w7FC835fFtHVsLK3ch8B" version="12.1.8" type="github" pages="1">
  <diagram id="wBsFTlD9l-tB3xNEcDhj" name="Page-1">
    <mxGraphModel dx="852" dy="1679" grid="1" gridSize="10" guides="1" tooltips="1" connect="1" arrows="1" fold="1" page="1" pageScale="1" pageWidth="827" pageHeight="1169" math="0" shadow="0">
      <root>
        <mxCell id="0"/>
        <mxCell id="1" parent="0"/>
        <mxCell id="9zrNXWnGiJ5A4-3dF4jf-1" value="Teacher" style="swimlane;fontStyle=0;childLayout=stackLayout;horizontal=1;startSize=26;fillColor=none;horizontalStack=0;resizeParent=1;resizeParentMax=0;resizeLast=0;collapsible=1;marginBottom=0;" parent="1" vertex="1">
          <mxGeometry x="60" y="500" width="140" height="200" as="geometry"/>
        </mxCell>
        <mxCell id="9zrNXWnGiJ5A4-3dF4jf-2" value="ID : int &#xa;last_name : varchar&#xa;first_name : varchar&#xa;address : varchar&#xa;phone : varchar&#xa;email: varchar&#xa;avatar : varchar&#xa;isDelete : int&#xa;userID : int&#xa;schoolID : int&#xa;createdAt : datetime&#xa;updatedAt : datetime &#xa;" style="text;strokeColor=none;fillColor=none;align=left;verticalAlign=top;spacingLeft=4;spacingRight=4;overflow=hidden;rotatable=0;points=[[0,0.5],[1,0.5]];portConstraint=eastwest;" parent="9zrNXWnGiJ5A4-3dF4jf-1" vertex="1">
          <mxGeometry y="26" width="140" height="174" as="geometry"/>
        </mxCell>
        <mxCell id="aQ7XGXV-vif6D-BRFP7N-8" value="" style="edgeStyle=orthogonalEdgeStyle;rounded=0;orthogonalLoop=1;jettySize=auto;html=1;" edge="1" parent="1" source="9zrNXWnGiJ5A4-3dF4jf-13" target="aQ7XGXV-vif6D-BRFP7N-6">
          <mxGeometry relative="1" as="geometry">
            <Array as="points">
              <mxPoint x="550" y="510"/>
              <mxPoint x="550" y="510"/>
            </Array>
          </mxGeometry>
        </mxCell>
        <mxCell id="9zrNXWnGiJ5A4-3dF4jf-13" value="Student " style="swimlane;fontStyle=0;childLayout=stackLayout;horizontal=1;startSize=26;fillColor=none;horizontalStack=0;resizeParent=1;resizeParentMax=0;resizeLast=0;collapsible=1;marginBottom=0;" parent="1" vertex="1">
          <mxGeometry x="470" y="490" width="140" height="200" as="geometry"/>
        </mxCell>
        <mxCell id="9zrNXWnGiJ5A4-3dF4jf-14" value="ID : int &#xa;last_name : varchar&#xa;first_name : varchar&#xa;address : varchar&#xa;birthday : datetime&#xa;gender : int&#xa;height : decimal&#xa;weight : decimal&#xa;parent_id : int&#xa;avatar : varchar&#xa;userID : int&#xa;schoolID : int &#xa;" style="text;strokeColor=none;fillColor=none;align=left;verticalAlign=top;spacingLeft=4;spacingRight=4;overflow=hidden;rotatable=0;points=[[0,0.5],[1,0.5]];portConstraint=eastwest;" parent="9zrNXWnGiJ5A4-3dF4jf-13" vertex="1">
          <mxGeometry y="26" width="140" height="174" as="geometry"/>
        </mxCell>
        <mxCell id="aQ7XGXV-vif6D-BRFP7N-6" value="Parents" style="swimlane;fontStyle=0;childLayout=stackLayout;horizontal=1;startSize=26;fillColor=none;horizontalStack=0;resizeParent=1;resizeParentMax=0;resizeLast=0;collapsible=1;marginBottom=0;" vertex="1" parent="1">
          <mxGeometry x="480" y="260" width="140" height="200" as="geometry"/>
        </mxCell>
        <mxCell id="aQ7XGXV-vif6D-BRFP7N-7" value="ID : int &#xa;last_name : varchar&#xa;first_name : varchar&#xa;phone : varchar&#xa;realationship : varchar&#xa;avatar : varchar&#xa;emergency_contact :varchar&#xa;is_delete : int&#xa;userID : int&#xa;createdAt : datetime&#xa;updateAt : datetime  &#xa;&#xa;&#xa; &#xa;" style="text;strokeColor=none;fillColor=none;align=left;verticalAlign=top;spacingLeft=4;spacingRight=4;overflow=hidden;rotatable=0;points=[[0,0.5],[1,0.5]];portConstraint=eastwest;" vertex="1" parent="aQ7XGXV-vif6D-BRFP7N-6">
          <mxGeometry y="26" width="140" height="174" as="geometry"/>
        </mxCell>
        <mxCell id="9zrNXWnGiJ5A4-3dF4jf-73" style="edgeStyle=orthogonalEdgeStyle;rounded=0;orthogonalLoop=1;jettySize=auto;html=1;entryX=0;entryY=0.025;entryDx=0;entryDy=0;entryPerimeter=0;" parent="1" source="9zrNXWnGiJ5A4-3dF4jf-5" target="9zrNXWnGiJ5A4-3dF4jf-13" edge="1">
          <mxGeometry relative="1" as="geometry">
            <mxPoint x="430" y="370" as="targetPoint"/>
            <Array as="points">
              <mxPoint x="470" y="370"/>
            </Array>
          </mxGeometry>
        </mxCell>
        <mxCell id="9zrNXWnGiJ5A4-3dF4jf-77" style="edgeStyle=orthogonalEdgeStyle;rounded=0;orthogonalLoop=1;jettySize=auto;html=1;entryX=0.5;entryY=0;entryDx=0;entryDy=0;" parent="1" source="9zrNXWnGiJ5A4-3dF4jf-5" target="9zrNXWnGiJ5A4-3dF4jf-1" edge="1">
          <mxGeometry relative="1" as="geometry">
            <Array as="points">
              <mxPoint x="130" y="480"/>
              <mxPoint x="130" y="480"/>
            </Array>
          </mxGeometry>
        </mxCell>
        <mxCell id="9zrNXWnGiJ5A4-3dF4jf-5" value="School" style="swimlane;fontStyle=0;childLayout=stackLayout;horizontal=1;startSize=26;fillColor=none;horizontalStack=0;resizeParent=1;resizeParentMax=0;resizeLast=0;collapsible=1;marginBottom=0;" parent="1" vertex="1">
          <mxGeometry x="70" y="260" width="140" height="210" as="geometry"/>
        </mxCell>
        <mxCell id="9zrNXWnGiJ5A4-3dF4jf-6" value="ID : int &#xa;school_name : varchar&#xa;school_year : int&#xa;address : varchar&#xa;phone : varchar&#xa;email: varchar&#xa;avatar : varchar&#xa;description : text&#xa;userID : int&#xa;schoolID : int&#xa;createdAt : datetime&#xa;updatedAt : datetime &#xa;" style="text;strokeColor=none;fillColor=none;align=left;verticalAlign=top;spacingLeft=4;spacingRight=4;overflow=hidden;rotatable=0;points=[[0,0.5],[1,0.5]];portConstraint=eastwest;" parent="9zrNXWnGiJ5A4-3dF4jf-5" vertex="1">
          <mxGeometry y="26" width="140" height="184" as="geometry"/>
        </mxCell>
        <mxCell id="9zrNXWnGiJ5A4-3dF4jf-70" style="edgeStyle=orthogonalEdgeStyle;rounded=0;orthogonalLoop=1;jettySize=auto;html=1;" parent="1" source="9zrNXWnGiJ5A4-3dF4jf-8" edge="1">
          <mxGeometry relative="1" as="geometry">
            <Array as="points">
              <mxPoint x="330" y="280"/>
            </Array>
            <mxPoint x="220" y="280" as="targetPoint"/>
          </mxGeometry>
        </mxCell>
        <mxCell id="9zrNXWnGiJ5A4-3dF4jf-71" style="edgeStyle=orthogonalEdgeStyle;rounded=0;orthogonalLoop=1;jettySize=auto;html=1;entryX=-0.007;entryY=0.08;entryDx=0;entryDy=0;entryPerimeter=0;" parent="1" source="9zrNXWnGiJ5A4-3dF4jf-8" target="9zrNXWnGiJ5A4-3dF4jf-13" edge="1">
          <mxGeometry relative="1" as="geometry">
            <Array as="points">
              <mxPoint x="469" y="480"/>
            </Array>
          </mxGeometry>
        </mxCell>
        <mxCell id="9zrNXWnGiJ5A4-3dF4jf-8" value="User" style="swimlane;fontStyle=0;childLayout=stackLayout;horizontal=1;startSize=26;fillColor=none;horizontalStack=0;resizeParent=1;resizeParentMax=0;resizeLast=0;collapsible=1;marginBottom=0;" parent="1" vertex="1">
          <mxGeometry x="270" y="464" width="140" height="120" as="geometry"/>
        </mxCell>
        <mxCell id="9zrNXWnGiJ5A4-3dF4jf-9" value="ID : int&#xa;username : varchar&#xa;password : text&#xa;role : int&#xa;createdAt : datetime&#xa;updateAt : datetime " style="text;strokeColor=none;fillColor=none;align=left;verticalAlign=top;spacingLeft=4;spacingRight=4;overflow=hidden;rotatable=0;points=[[0,0.5],[1,0.5]];portConstraint=eastwest;" parent="9zrNXWnGiJ5A4-3dF4jf-8" vertex="1">
          <mxGeometry y="26" width="140" height="94" as="geometry"/>
        </mxCell>
        <mxCell id="9zrNXWnGiJ5A4-3dF4jf-16" value="images" style="swimlane;fontStyle=0;childLayout=stackLayout;horizontal=1;startSize=26;fillColor=none;horizontalStack=0;resizeParent=1;resizeParentMax=0;resizeLast=0;collapsible=1;marginBottom=0;" parent="1" vertex="1">
          <mxGeometry x="230" y="1250" width="140" height="100" as="geometry"/>
        </mxCell>
        <mxCell id="9zrNXWnGiJ5A4-3dF4jf-17" value="ID : int&#xa;path : text&#xa;createdAt : datetime&#xa;updatedAt : datetime&#xa;" style="text;strokeColor=none;fillColor=none;align=left;verticalAlign=top;spacingLeft=4;spacingRight=4;overflow=hidden;rotatable=0;points=[[0,0.5],[1,0.5]];portConstraint=eastwest;" parent="9zrNXWnGiJ5A4-3dF4jf-16" vertex="1">
          <mxGeometry y="26" width="140" height="74" as="geometry"/>
        </mxCell>
        <mxCell id="9zrNXWnGiJ5A4-3dF4jf-28" value="Week_plans" style="swimlane;fontStyle=0;childLayout=stackLayout;horizontal=1;startSize=26;fillColor=none;horizontalStack=0;resizeParent=1;resizeParentMax=0;resizeLast=0;collapsible=1;marginBottom=0;" parent="1" vertex="1">
          <mxGeometry x="330" y="-130" width="140" height="110" as="geometry"/>
        </mxCell>
        <mxCell id="9zrNXWnGiJ5A4-3dF4jf-29" value="ID : int &#xa;date_plan : datetime&#xa;imageID : int&#xa;createdAt : datetime&#xa;updateAt : datetime" style="text;strokeColor=none;fillColor=none;align=left;verticalAlign=top;spacingLeft=4;spacingRight=4;overflow=hidden;rotatable=0;points=[[0,0.5],[1,0.5]];portConstraint=eastwest;" parent="9zrNXWnGiJ5A4-3dF4jf-28" vertex="1">
          <mxGeometry y="26" width="140" height="84" as="geometry"/>
        </mxCell>
        <mxCell id="9zrNXWnGiJ5A4-3dF4jf-68" style="edgeStyle=orthogonalEdgeStyle;rounded=0;orthogonalLoop=1;jettySize=auto;html=1;entryX=0.514;entryY=1.041;entryDx=0;entryDy=0;entryPerimeter=0;" parent="1" source="9zrNXWnGiJ5A4-3dF4jf-32" target="9zrNXWnGiJ5A4-3dF4jf-17" edge="1">
          <mxGeometry relative="1" as="geometry">
            <Array as="points">
              <mxPoint x="302" y="1370"/>
              <mxPoint x="302" y="1370"/>
            </Array>
          </mxGeometry>
        </mxCell>
        <mxCell id="9zrNXWnGiJ5A4-3dF4jf-32" value="Activities" style="swimlane;fontStyle=0;childLayout=stackLayout;horizontal=1;startSize=26;fillColor=none;horizontalStack=0;resizeParent=1;resizeParentMax=0;resizeLast=0;collapsible=1;marginBottom=0;" parent="1" vertex="1">
          <mxGeometry x="230" y="1400" width="140" height="170" as="geometry"/>
        </mxCell>
        <mxCell id="9zrNXWnGiJ5A4-3dF4jf-33" value="ID : int &#xa;title : varchar&#xa;acti_time_from : datetime&#xa;acti_time_to : datetime&#xa;regis_time_from : datetime&#xa;regis_time_to : datetime&#xa;content : text&#xa;regis_starus : int&#xa;createdAt : datetime&#xa;updatedAt : datetime" style="text;strokeColor=none;fillColor=none;align=left;verticalAlign=top;spacingLeft=4;spacingRight=4;overflow=hidden;rotatable=0;points=[[0,0.5],[1,0.5]];portConstraint=eastwest;" parent="9zrNXWnGiJ5A4-3dF4jf-32" vertex="1">
          <mxGeometry y="26" width="140" height="144" as="geometry"/>
        </mxCell>
        <mxCell id="9zrNXWnGiJ5A4-3dF4jf-67" style="edgeStyle=orthogonalEdgeStyle;rounded=0;orthogonalLoop=1;jettySize=auto;html=1;entryX=1;entryY=0.5;entryDx=0;entryDy=0;" parent="1" source="9zrNXWnGiJ5A4-3dF4jf-40" target="9zrNXWnGiJ5A4-3dF4jf-17" edge="1">
          <mxGeometry relative="1" as="geometry">
            <Array as="points">
              <mxPoint x="455" y="1240"/>
              <mxPoint x="455" y="1313"/>
            </Array>
          </mxGeometry>
        </mxCell>
        <mxCell id="9zrNXWnGiJ5A4-3dF4jf-40" value="Moment" style="swimlane;fontStyle=0;childLayout=stackLayout;horizontal=1;startSize=26;fillColor=none;horizontalStack=0;resizeParent=1;resizeParentMax=0;resizeLast=0;collapsible=1;marginBottom=0;" parent="1" vertex="1">
          <mxGeometry x="540" y="1230" width="140" height="170" as="geometry"/>
        </mxCell>
        <mxCell id="9zrNXWnGiJ5A4-3dF4jf-41" value="ID : int &#xa;likes: int&#xa;content : text&#xa;author_id : int&#xa;status_accept : int&#xa;createdAt : datetime&#xa;updatedAt : datetime" style="text;strokeColor=none;fillColor=none;align=left;verticalAlign=top;spacingLeft=4;spacingRight=4;overflow=hidden;rotatable=0;points=[[0,0.5],[1,0.5]];portConstraint=eastwest;" parent="9zrNXWnGiJ5A4-3dF4jf-40" vertex="1">
          <mxGeometry y="26" width="140" height="144" as="geometry"/>
        </mxCell>
        <mxCell id="9zrNXWnGiJ5A4-3dF4jf-46" value="notifications" style="swimlane;fontStyle=0;childLayout=stackLayout;horizontal=1;startSize=14;fillColor=none;horizontalStack=0;resizeParent=1;resizeParentMax=0;resizeLast=0;collapsible=1;marginBottom=0;" parent="1" vertex="1">
          <mxGeometry x="540" y="1450" width="140" height="102" as="geometry"/>
        </mxCell>
        <mxCell id="9zrNXWnGiJ5A4-3dF4jf-47" value="ID : int &#xa;title : varchar&#xa;author : int&#xa;content : text&#xa;createdAt : datetime&#xa;updatedAt : datetime" style="text;strokeColor=none;fillColor=none;align=left;verticalAlign=top;spacingLeft=4;spacingRight=4;overflow=hidden;rotatable=0;points=[[0,0.5],[1,0.5]];portConstraint=eastwest;" parent="9zrNXWnGiJ5A4-3dF4jf-46" vertex="1">
          <mxGeometry y="14" width="140" height="88" as="geometry"/>
        </mxCell>
        <mxCell id="9zrNXWnGiJ5A4-3dF4jf-49" value="Meal_types" style="swimlane;fontStyle=0;childLayout=stackLayout;horizontal=1;startSize=26;fillColor=none;horizontalStack=0;resizeParent=1;resizeParentMax=0;resizeLast=0;collapsible=1;marginBottom=0;" parent="1" vertex="1">
          <mxGeometry x="580" y="-190" width="140" height="150" as="geometry"/>
        </mxCell>
        <mxCell id="9zrNXWnGiJ5A4-3dF4jf-50" value="ID : int &#xa;breakfast : varchar&#xa;breakfast_sub : varchar&#xa;lunch : varchar&#xa;lunch_sub : varchar&#xa;date_meal : datetime&#xa;createdAt : datetime&#xa;updatedAt : datetime" style="text;strokeColor=none;fillColor=none;align=left;verticalAlign=top;spacingLeft=4;spacingRight=4;overflow=hidden;rotatable=0;points=[[0,0.5],[1,0.5]];portConstraint=eastwest;" parent="9zrNXWnGiJ5A4-3dF4jf-49" vertex="1">
          <mxGeometry y="26" width="140" height="124" as="geometry"/>
        </mxCell>
        <mxCell id="9zrNXWnGiJ5A4-3dF4jf-54" value="Study_results" style="swimlane;fontStyle=0;childLayout=stackLayout;horizontal=1;startSize=26;fillColor=none;horizontalStack=0;resizeParent=1;resizeParentMax=0;resizeLast=0;collapsible=1;marginBottom=0;" parent="1" vertex="1">
          <mxGeometry x="290" y="-570" width="140" height="150" as="geometry"/>
        </mxCell>
        <mxCell id="9zrNXWnGiJ5A4-3dF4jf-55" value="ID : int &#xa;stdID : int&#xa;classID : int&#xa;rate : int&#xa;semester: int&#xa;review : text&#xa;createdAt : datetime&#xa;updatedAt : datetime" style="text;strokeColor=none;fillColor=none;align=left;verticalAlign=top;spacingLeft=4;spacingRight=4;overflow=hidden;rotatable=0;points=[[0,0.5],[1,0.5]];portConstraint=eastwest;" parent="9zrNXWnGiJ5A4-3dF4jf-54" vertex="1">
          <mxGeometry y="26" width="140" height="124" as="geometry"/>
        </mxCell>
        <mxCell id="9zrNXWnGiJ5A4-3dF4jf-69" style="edgeStyle=orthogonalEdgeStyle;rounded=0;orthogonalLoop=1;jettySize=auto;html=1;entryX=1.007;entryY=0.18;entryDx=0;entryDy=0;entryPerimeter=0;" parent="1" source="9zrNXWnGiJ5A4-3dF4jf-47" target="9zrNXWnGiJ5A4-3dF4jf-16" edge="1">
          <mxGeometry relative="1" as="geometry">
            <Array as="points">
              <mxPoint x="480" y="1508"/>
              <mxPoint x="480" y="1268"/>
            </Array>
          </mxGeometry>
        </mxCell>
        <mxCell id="aQ7XGXV-vif6D-BRFP7N-9" style="edgeStyle=orthogonalEdgeStyle;rounded=0;orthogonalLoop=1;jettySize=auto;html=1;entryX=1;entryY=0.065;entryDx=0;entryDy=0;entryPerimeter=0;" edge="1" parent="1" source="9zrNXWnGiJ5A4-3dF4jf-9" target="9zrNXWnGiJ5A4-3dF4jf-1">
          <mxGeometry relative="1" as="geometry"/>
        </mxCell>
        <mxCell id="aQ7XGXV-vif6D-BRFP7N-10" style="edgeStyle=orthogonalEdgeStyle;rounded=0;orthogonalLoop=1;jettySize=auto;html=1;entryX=0;entryY=0.5;entryDx=0;entryDy=0;" edge="1" parent="1" source="9zrNXWnGiJ5A4-3dF4jf-2" target="9zrNXWnGiJ5A4-3dF4jf-14">
          <mxGeometry relative="1" as="geometry"/>
        </mxCell>
        <mxCell id="aQ7XGXV-vif6D-BRFP7N-11" value="&lt;p style=&quot;margin: 0px ; margin-top: 4px ; text-align: center ; text-decoration: underline&quot;&gt;&lt;b&gt;Role&amp;nbsp;&lt;/b&gt;&lt;/p&gt;&lt;hr&gt;&lt;p style=&quot;margin: 0px ; margin-left: 8px&quot;&gt;&lt;b&gt;School =10&lt;/b&gt;&lt;/p&gt;&lt;p style=&quot;margin: 0px ; margin-left: 8px&quot;&gt;&lt;b&gt;Teacher =11&lt;/b&gt;&lt;/p&gt;&lt;p style=&quot;margin: 0px ; margin-left: 8px&quot;&gt;&lt;b&gt;Student =12&lt;br&gt;&lt;/b&gt;&lt;br&gt;&lt;/p&gt;" style="verticalAlign=top;align=left;overflow=fill;fontSize=12;fontFamily=Helvetica;html=1;" vertex="1" parent="1">
          <mxGeometry x="280" y="190" width="160" height="80" as="geometry"/>
        </mxCell>
      </root>
    </mxGraphModel>
  </diagram>
</mxfile>
